{
	"asset":{
		"generator":"Khronos glTF Blender I/O v3.6.6",
		"version":"2.0"
	},
	"scene":0,
	"scenes":[
		{
			"name":"Scene",
			"nodes":[
				0
			]
		}
	],
	"nodes":[
		{
			"mesh":0,
			"name":"treeLarge",
			"translation":[
				0.0,
				0.0,
				0.0
			],
            "scale":[
                0.4,
                0.4,
                0.4
            ]
		}
	],
	"materials":[
		{
			"name":"grass.059",
			"pbrMetallicRoughness":{
				"baseColorFactor":[
					0.3019607961177826,
					0.5607843399047852,
					0.4313725531101227,
					1
				],
				"metallicFactor":0.05000000074505806,
				"roughnessFactor":0.800000011920929
			}
		},
		{
			"name":"bark",
			"pbrMetallicRoughness":{
				"baseColorFactor":[
					0.8313725590705872,
					0.6549019813537598,
					0.42352941632270813,
					1
				],
				"metallicFactor":0
			}
		}
	],
	"meshes":[
		{
			"name":"treeLarge",
			"primitives":[
				{
					"attributes":{
						"POSITION":0,
						"TEXCOORD_0":1,
						"NORMAL":2
					},
					"indices":3,
					"material":0
				},
				{
					"attributes":{
						"POSITION":4,
						"TEXCOORD_0":5,
						"NORMAL":6
					},
					"indices":7,
					"material":1
				}
			]
		}
	],
	"accessors":[
		{
			"bufferView":0,
			"componentType":5126,
			"count":116,
			"max":[
				1.1686040163040161,
				9.871659278869629,
				1.349387764930725
			],
			"min":[
				-1.1686040163040161,
				0,
				-1.349387764930725
			],
			"type":"VEC3"
		},
		{
			"bufferView":1,
			"componentType":5126,
			"count":116,
			"type":"VEC2"
		},
		{
			"bufferView":2,
			"componentType":5126,
			"count":116,
			"type":"VEC3"
		},
		{
			"bufferView":3,
			"componentType":5123,
			"count":192,
			"type":"SCALAR"
		},
		{
			"bufferView":4,
			"componentType":5126,
			"count":16,
			"max":[
				0.27307501435279846,
				1.6961475610733032,
				0.27307501435279846
			],
			"min":[
				-0.27307501435279846,
				0,
				-0.27307501435279846
			],
			"type":"VEC3"
		},
		{
			"bufferView":5,
			"componentType":5126,
			"count":16,
			"type":"VEC2"
		},
		{
			"bufferView":6,
			"componentType":5126,
			"count":16,
			"type":"VEC3"
		},
		{
			"bufferView":7,
			"componentType":5123,
			"count":24,
			"type":"SCALAR"
		}
	],
	"bufferViews":[
		{
			"buffer":0,
			"byteLength":1392,
			"byteOffset":0,
			"target":34962
		},
		{
			"buffer":0,
			"byteLength":928,
			"byteOffset":1392,
			"target":34962
		},
		{
			"buffer":0,
			"byteLength":1392,
			"byteOffset":2320,
			"target":34962
		},
		{
			"buffer":0,
			"byteLength":384,
			"byteOffset":3712,
			"target":34963
		},
		{
			"buffer":0,
			"byteLength":192,
			"byteOffset":4096,
			"target":34962
		},
		{
			"buffer":0,
			"byteLength":128,
			"byteOffset":4288,
			"target":34962
		},
		{
			"buffer":0,
			"byteLength":192,
			"byteOffset":4416,
			"target":34962
		},
		{
			"buffer":0,
			"byteLength":48,
			"byteOffset":4608,
			"target":34963
		}
	],
	"buffers":[
		{
			"byteLength":4656,
			"uri":"data:application/octet-stream;base64,"
		}
	]
}
